<svg xmlns="http://www.w3.org/2000/svg" version="1.1" xmlns:xlink="http://www.w3.org/1999/xlink" xmlns:svgjs="http://svgjs.dev/svgjs" width="1500" height="1500" viewBox="0 0 1500 1500"><rect width="1500" height="1500" fill="#ffffff"></rect><g transform="matrix(0.6666666666666666,0,0,0.6666666666666666,249.78425655976667,249.78425655976673)"><svg viewBox="0 0 343 343" data-background-color="#ffffff" preserveAspectRatio="xMidYMid meet" height="1500" width="1500" xmlns="http://www.w3.org/2000/svg" xmlns:xlink="http://www.w3.org/1999/xlink"><g id="tight-bounds" transform="matrix(1,0,0,1,0.0740000000000407,0.07400000000001228)"><svg viewBox="0 0 342.85155851775386 342.85155851775386" height="342.85155851775386" width="342.85155851775386"><g><svg></svg></g><g><svg viewBox="0 0 342.85155851775386 342.85155851775386" height="342.85155851775386" width="342.85155851775386"><g><path d="M0 171.426c0-94.676 76.75-171.426 171.426-171.426 94.676 0 171.426 76.75 171.426 171.426 0 94.676-76.75 171.426-171.426 171.426-94.676 0-171.426-76.75-171.426-171.426zM171.426 339.58c92.869 0 168.155-75.285 168.154-168.154 0-92.869-75.285-168.155-168.154-168.155-92.869 0-168.155 75.285-168.155 168.155 0 92.869 75.285 168.155 168.155 168.154z" data-fill-palette-color="tertiary" fill="#2f64ef" stroke="transparent"></path><ellipse rx="164.56874808852186" ry="164.56874808852186" cx="171.42577925887693" cy="171.42577925887693" fill="#2f64ef" stroke="transparent" stroke-width="0" fill-opacity="1" data-fill-palette-color="tertiary"></ellipse></g><g transform="matrix(1,0,0,1,64.84655864529837,99.14996413282157)"><svg viewBox="0 0 213.1584412271571 144.55163025211073" height="144.55163025211073" width="213.1584412271571"><g><svg viewBox="0 0 213.1584412271571 144.55163025211073" height="144.55163025211073" width="213.1584412271571"><g><svg viewBox="0 0 213.1584412271571 144.55163025211073" height="144.55163025211073" width="213.1584412271571"><g transform="matrix(1,0,0,1,0,87.46155855048283)"><svg viewBox="0 0 213.1584412271571 57.090071701627906" height="57.090071701627906" width="213.1584412271571"><g id="textblocktransform"><svg viewBox="0 0 213.1584412271571 57.090071701627906" height="57.090071701627906" width="213.1584412271571" id="textblock"><g><svg viewBox="0 0 213.1584412271571 36.27255400308821" height="36.27255400308821" width="213.1584412271571"><g transform="matrix(1,0,0,1,0,0)"><svg width="213.1584412271571" viewBox="3.98 -41.19 318.47999999999996 54.2" height="36.27255400308821" data-palette-color="#ffffff"><path d="M13.67-13.13L13.67 0 3.98 0 3.98-35.16 22.97-35.16Q25.44-35.16 27.7-34.5 29.96-33.84 31.69-32.51 33.42-31.18 34.46-29.16 35.5-27.15 35.5-24.44L35.5-24.44Q35.5-22.73 35.01-21.23 34.52-19.73 33.65-18.48 32.79-17.24 31.62-16.24 30.44-15.23 29.05-14.55 27.66-13.87 26.11-13.5 24.56-13.13 22.97-13.13L22.97-13.13 13.67-13.13ZM25.68-24.44L25.68-24.44Q25.68-27.83 23.96-29.77 22.24-31.71 18.77-31.71L18.77-31.71 13.67-31.71 13.67-16.46 18.77-16.46Q20.63-16.46 21.94-17.05 23.24-17.65 24.07-18.73 24.9-19.8 25.29-21.25 25.68-22.71 25.68-24.44ZM67.87-28.2L67.87 0 59.62 0 59.62-3.37Q58.15-1.37 56.09-0.4 54.03 0.56 51.56 0.56L51.56 0.56Q48.34 0.56 45.8-0.59 43.26-1.73 41.5-3.72 39.74-5.71 38.82-8.4 37.89-11.08 37.89-14.16L37.89-14.16Q37.89-17.24 38.82-19.92 39.74-22.61 41.5-24.6 43.26-26.59 45.8-27.73 48.34-28.88 51.56-28.88L51.56-28.88Q53.2-28.88 54.67-28.39 56.15-27.91 57.38-27.01 58.62-26.12 59.56-24.87 60.5-23.61 61.03-22.07L61.03-22.07 64.69-28.2 67.87-28.2ZM59.57-14.16L59.57-14.16Q59.57-15.26 59.46-16.48 59.35-17.7 59.08-18.9 58.81-20.09 58.33-21.18 57.86-22.27 57.11-23.11 56.37-23.95 55.32-24.44 54.27-24.93 52.88-24.93L52.88-24.93Q51.49-24.93 50.46-24.43 49.44-23.93 48.7-23.08 47.97-22.24 47.5-21.14 47.02-20.04 46.75-18.85 46.48-17.65 46.37-16.44 46.26-15.23 46.26-14.16L46.26-14.16Q46.26-13.09 46.37-11.87 46.48-10.64 46.75-9.45 47.02-8.25 47.5-7.15 47.97-6.05 48.7-5.21 49.44-4.37 50.46-3.87 51.49-3.37 52.88-3.37L52.88-3.37Q54.15-3.37 55.14-3.89 56.13-4.42 56.87-5.3 57.61-6.18 58.13-7.3 58.64-8.42 58.96-9.62 59.27-10.82 59.42-12 59.57-13.18 59.57-14.16ZM85.37-24.93L85.37 0 77.09 0 77.09-24.93 71.97-24.93 71.97-28.2 77.09-28.2 77.09-38.57 85.37-38.57 85.37-28.2 93.92-28.2 93.92-24.93 85.37-24.93ZM103.29-13.38L103.29-13.38Q104.8-13.04 106.32-12.84 107.83-12.65 109.37-12.65L109.37-12.65Q110.98-12.65 112.36-12.95 113.74-13.26 114.75-13.98 115.76-14.7 116.35-15.89 116.94-17.09 116.94-18.87L116.94-18.87Q116.94-20.31 116.55-21.51 116.15-22.71 115.39-23.56 114.62-24.41 113.49-24.89 112.37-25.37 110.88-25.37L110.88-25.37Q109.49-25.37 108.38-24.85 107.27-24.34 106.43-23.47 105.58-22.61 104.99-21.46 104.39-20.31 104-19.07 103.61-17.82 103.43-16.55 103.26-15.28 103.26-14.16L103.26-14.16Q103.26-13.96 103.26-13.77 103.26-13.57 103.29-13.38ZM123.63-18.95L123.63-18.95Q123.63-17.21 123.06-15.86 122.5-14.5 121.54-13.48 120.57-12.45 119.3-11.74 118.03-11.04 116.59-10.58 115.15-10.13 113.63-9.94 112.1-9.74 110.66-9.74L110.66-9.74Q108.83-9.74 107.05-10 105.27-10.25 103.53-10.82L103.53-10.82Q103.8-9.2 104.39-7.75 104.97-6.3 105.95-5.21 106.93-4.13 108.35-3.49 109.78-2.86 111.74-2.86L111.74-2.86Q113.03-2.86 114.2-3.25 115.37-3.64 116.35-4.35 117.33-5.05 118.07-6.03 118.82-7.01 119.28-8.2L119.28-8.2 122.84-6.88Q122.04-4.96 120.63-3.55 119.23-2.15 117.46-1.23 115.69-0.32 113.7 0.12 111.71 0.56 109.76 0.56L109.76 0.56Q106.54 0.56 103.8-0.52 101.07-1.61 99.09-3.56 97.11-5.52 95.99-8.23 94.87-10.94 94.87-14.16L94.87-14.16Q94.87-17.38 95.99-20.09 97.11-22.8 99.09-24.76 101.07-26.71 103.8-27.8 106.54-28.88 109.76-28.88L109.76-28.88Q111.32-28.88 112.96-28.66 114.59-28.44 116.13-27.97 117.67-27.49 119.04-26.73 120.4-25.98 121.42-24.87 122.43-23.75 123.03-22.29 123.63-20.83 123.63-18.95ZM137.03-32.62L137.03 0 128.77 0 128.77-41.19 131.95-41.19 137.03-32.62ZM190.54-26.44L190.54-26.44 186.36-24.68Q185.87-26.27 185.06-27.59 184.24-28.91 183.1-29.85 181.97-30.79 180.53-31.31 179.09-31.84 177.38-31.84L177.38-31.84Q175.55-31.84 174.02-31.23 172.49-30.62 171.29-29.58 170.08-28.54 169.17-27.15 168.27-25.76 167.67-24.18 167.07-22.61 166.77-20.92 166.46-19.24 166.46-17.63L166.46-17.63Q166.46-15.06 167.06-12.52 167.66-9.99 168.97-7.96 170.27-5.93 172.35-4.68 174.42-3.42 177.38-3.42L177.38-3.42Q178.99-3.42 179.89-4.14 180.8-4.86 180.8-6.67L180.8-6.67 180.8-17.46 190.49-17.46 190.49 0 187.68 0 185.97-2.76Q183.63-0.98 180.81-0.13 177.99 0.71 175.06 0.71L175.06 0.71Q172.47 0.71 170.09 0.07 167.71-0.56 165.66-1.73 163.61-2.91 161.94-4.57 160.26-6.23 159.08-8.25 157.9-10.28 157.25-12.66 156.6-15.04 156.6-17.63L156.6-17.63Q156.6-20.21 157.25-22.6 157.9-24.98 159.08-27.01 160.26-29.05 161.94-30.71 163.61-32.37 165.66-33.54 167.71-34.72 170.09-35.35 172.47-35.99 175.06-35.99L175.06-35.99Q177.55-35.99 179.93-35.4 182.31-34.81 184.36-33.63 186.41-32.45 188.01-30.65 189.61-28.86 190.54-26.44ZM220.51-25.71L220.51-25.71 215.88-18.02Q215.58-18.99 215.12-20.21 214.66-21.44 213.97-22.5 213.29-23.56 212.34-24.28 211.38-25 210.14-25L210.14-25Q208.99-25 208.15-24.41 207.31-23.83 206.72-22.89 206.13-21.95 205.76-20.76 205.38-19.58 205.17-18.37 204.96-17.16 204.89-16.05 204.82-14.94 204.82-14.14L204.82-14.14 204.82 0 196.54 0 196.54-28.2 199.71-28.2 203.06-21.63Q203.74-23.22 204.62-24.55 205.5-25.88 206.65-26.84 207.8-27.81 209.25-28.34 210.7-28.88 212.53-28.88L212.53-28.88Q213.48-28.88 214.66-28.72 215.83-28.56 216.95-28.19 218.07-27.81 219.03-27.2 219.98-26.59 220.51-25.71ZM253.01-14.16L253.01-14.16Q253.01-11.96 252.42-10.03 251.84-8.11 250.8-6.47 249.76-4.83 248.3-3.53 246.83-2.22 245.08-1.32 243.34-0.42 241.35 0.07 239.36 0.56 237.26 0.56L237.26 0.56Q235.16 0.56 233.18 0.07 231.21-0.42 229.46-1.32 227.71-2.22 226.25-3.53 224.78-4.83 223.75-6.47 222.71-8.11 222.12-10.05 221.54-11.99 221.54-14.16L221.54-14.16Q221.54-16.33 222.12-18.27 222.71-20.21 223.75-21.85 224.78-23.49 226.25-24.79 227.71-26.1 229.46-27 231.21-27.91 233.18-28.39 235.16-28.88 237.26-28.88L237.26-28.88Q239.36-28.88 241.35-28.39 243.34-27.91 245.08-27 246.83-26.1 248.3-24.79 249.76-23.49 250.8-21.85 251.84-20.21 252.42-18.27 253.01-16.33 253.01-14.16ZM244.61-14.16L244.61-14.16Q244.61-15.33 244.47-16.64 244.34-17.94 244.02-19.2 243.71-20.46 243.16-21.62 242.61-22.78 241.8-23.65 241-24.51 239.87-25.04 238.75-25.56 237.26-25.56L237.26-25.56Q235.84-25.56 234.75-25.02 233.65-24.49 232.83-23.6 232.01-22.71 231.46-21.53 230.91-20.36 230.57-19.1 230.23-17.85 230.08-16.56 229.94-15.28 229.94-14.16L229.94-14.16Q229.94-13.04 230.08-11.76 230.23-10.47 230.57-9.2 230.91-7.93 231.46-6.77 232.01-5.62 232.83-4.72 233.65-3.83 234.75-3.3 235.84-2.76 237.26-2.76L237.26-2.76Q238.73-2.76 239.85-3.28 240.97-3.81 241.79-4.69 242.61-5.57 243.14-6.71 243.68-7.86 244.01-9.13 244.34-10.4 244.47-11.69 244.61-12.99 244.61-14.16ZM256.76-12.06L256.76-12.06Q256.76-13.99 257.09-16.06 257.42-18.14 258.05-20.21 258.67-22.29 259.55-24.32 260.43-26.34 261.53-28.2L261.53-28.2 267.56-28.2Q266.95-26.37 266.47-24.38 265.99-22.39 265.66-20.4 265.33-18.41 265.15-16.5 264.97-14.6 264.97-12.96L264.97-12.96Q264.97-12.01 265.05-10.93 265.14-9.84 265.36-8.75 265.58-7.67 265.98-6.67 266.38-5.66 267.02-4.9 267.65-4.13 268.57-3.67 269.48-3.22 270.73-3.22L270.73-3.22Q271.95-3.22 272.91-3.77 273.88-4.32 274.61-5.21 275.34-6.1 275.86-7.25 276.37-8.4 276.7-9.61 277.03-10.82 277.19-11.98 277.35-13.13 277.35-14.06L277.35-14.06 277.35-28.2 285.6-28.2 285.6 0 282.42 0 278.64-6.57Q277.93-4.93 276.92-3.6 275.91-2.27 274.61-1.32 273.32-0.37 271.74 0.15 270.17 0.66 268.34 0.66L268.34 0.66Q265.41 0.66 263.23-0.29 261.06-1.25 259.62-2.93 258.18-4.61 257.47-6.95 256.76-9.28 256.76-12.06ZM322.46-14.16L322.46-14.16Q322.46-11.08 321.53-8.4 320.6-5.71 318.85-3.72 317.09-1.73 314.55-0.59 312.01 0.56 308.79 0.56L308.79 0.56Q306.32 0.56 304.26-0.4 302.2-1.37 300.73-3.37L300.73-3.37 300.73 13.01 292.48 13.01 292.48-28.2 295.65-28.2 299.32-22.07Q299.85-23.61 300.79-24.87 301.73-26.12 302.97-27.01 304.2-27.91 305.68-28.39 307.15-28.88 308.79-28.88L308.79-28.88Q312.01-28.88 314.55-27.73 317.09-26.59 318.85-24.6 320.6-22.61 321.53-19.92 322.46-17.24 322.46-14.16ZM314.09-14.16L314.09-14.16Q314.09-15.23 313.98-16.44 313.87-17.65 313.6-18.85 313.33-20.04 312.85-21.14 312.38-22.24 311.64-23.08 310.91-23.93 309.87-24.43 308.84-24.93 307.47-24.93L307.47-24.93Q306.05-24.93 305.02-24.44 303.98-23.95 303.23-23.11 302.49-22.27 302.01-21.18 301.54-20.09 301.27-18.9 301-17.7 300.89-16.48 300.78-15.26 300.78-14.16L300.78-14.16Q300.78-13.18 300.93-12 301.07-10.82 301.39-9.62 301.71-8.42 302.22-7.3 302.73-6.18 303.48-5.3 304.22-4.42 305.21-3.89 306.2-3.37 307.47-3.37L307.47-3.37Q308.86-3.37 309.89-3.87 310.91-4.37 311.64-5.21 312.38-6.05 312.85-7.15 313.33-8.25 313.6-9.45 313.87-10.64 313.98-11.87 314.09-13.09 314.09-14.16Z" opacity="1" transform="matrix(1,0,0,1,0,0)" fill="#ffffff" class="wordmark-text-0" data-fill-palette-color="quaternary" id="text-0"></path></svg></g></svg></g><g transform="matrix(1,0,0,1,0,44.83563346192126)"><svg viewBox="0 0 213.1584412271571 12.254438239706639" height="12.254438239706639" width="213.1584412271571"><g transform="matrix(1,0,0,1,0,0)"><svg width="213.1584412271571" viewBox="0.45 -32.45 588.74 33.85" height="12.254438239706639" data-palette-color="#ffffff"><path d="M6.25 0.2L6.65-1.95Q9.15-2.15 10.1-2.58 11.05-3 11.35-4.13 11.65-5.25 11.65-8.1L11.65-8.1 11.65-29.9Q7.4-29.75 5.88-29.43 4.35-29.1 3.8-27.98 3.25-26.85 2.8-23.6L2.8-23.6 0.45-23.4Q1.05-28.15 1.2-32.05L1.2-32.05 1.65-32.45 5.8-31.9 21.3-31.9 25.55-32.45 26-32.05Q26.15-27.95 26.75-23.6L26.75-23.6 24.4-23.4Q23.85-26.7 23.3-27.85 22.75-29 21.35-29.35 19.95-29.7 15.95-29.9L15.95-29.9Q15.65-26.9 15.4-19.3 15.15-11.7 15.15-5.6L15.15-5.6Q15.15-3.75 15.8-2.98 16.45-2.2 18-2.2L18-2.2Q19.5-2.2 20.75-2.35L20.75-2.35 20.9-2.15 20.45 0.15 18.8 0.1 13.1 0Q10.35 0 6.25 0.2L6.25 0.2ZM41.15 0.45Q36.7 0.45 34.37-1.75 32.05-3.95 32.05-8.1L32.05-8.1 32.05-20.85Q32.05-22.1 31.75-22.53 31.45-22.95 30.55-22.95L30.55-22.95 29.2-22.9 29.1-23.05 29.4-25Q29.95-25 31.4-24.95 32.85-24.9 34.35-24.9L34.35-24.9Q35.45-24.9 36.9-25.03 38.35-25.15 38.8-25.2L38.8-25.2 38.6-23.2Q37.15-23 36.65-22.55 36.15-22.1 36.05-21L36.05-21 35.75-9.55Q35.75-6 37.4-4.08 39.05-2.15 42.15-2.15L42.15-2.15Q45.3-2.15 46.92-3.73 48.55-5.3 48.55-8.3L48.55-8.3Q48.55-11.4 48.47-15.33 48.4-19.25 48.35-20.85L48.35-20.85Q48.25-22.2 48-22.58 47.75-22.95 46.9-22.95L46.9-22.95 45.2-22.9 45.15-23.05 45.45-25Q45.95-25 47.32-24.95 48.7-24.9 50.1-24.9L50.1-24.9Q51.25-24.9 52.57-25.03 53.9-25.15 54.3-25.2L54.3-25.2 54.15-23.2Q52.4-22.95 51.9-22.55 51.4-22.15 51.4-21.05L51.4-21.05 51.4-8.25Q51.4-4.1 48.72-1.83 46.05 0.45 41.15 0.45L41.15 0.45ZM77.59 0.6Q76.5 0.6 75.34-0.38 74.2-1.35 73.25-3.05L73.25-3.05 69.05-10.4 65.8-10.4 65.7-5.05Q65.7-3.6 65.9-2.98 66.09-2.35 66.67-2.15 67.25-1.95 68.65-1.9L68.65-1.9 68.75-1.75 68.34 0.15Q67.75 0.1 66.17 0.08 64.59 0.05 63 0.05L63 0.05Q61.45 0.05 60.3 0.1 59.15 0.15 58.75 0.2L58.75 0.2 59.09-1.85Q60.95-2.1 61.55-2.7 62.15-3.3 62.15-4.95L62.15-4.95 62.2-20.9Q62.2-22.1 61.9-22.53 61.59-22.95 60.75-22.95L60.75-22.95 59.34-22.9 59.2-23.1 59.5-25Q60-25 61.4-24.95 62.8-24.9 64.2-24.9L64.2-24.9Q65.65-24.9 67.3-24.98 68.95-25.05 69.55-25.05L69.55-25.05Q73.59-25.05 75.9-23.38 78.2-21.7 78.2-18.75L78.2-18.75Q78.2-16.45 76.65-14.5 75.09-12.55 72.3-11.3L72.3-11.3 76.55-4.9Q77.75-3.1 78.84-2.35 79.95-1.6 81.5-1.6L81.5-1.6 81.7-1.35 81.45 0.2 77.59 0.6ZM69.95-12.6Q70.9-13 71.62-13.38 72.34-13.75 73.25-14.95 74.15-16.15 74.15-18.05L74.15-18.05Q74.15-22.9 67-22.9L67-22.9Q66.59-22.9 66.45-22.73 66.3-22.55 66.3-22L66.3-22Q65.9-15.9 65.9-13L65.9-13 69.95-12.6ZM105.59-6.8L105.54-21.25Q105.54-22.9 104.19-22.9L104.19-22.9 102.69-22.9 102.59-23.1 102.94-25.05Q103.39-25 104.64-24.95 105.89-24.9 107.19-24.9L107.19-24.9Q108.29-24.9 109.67-25.03 111.04-25.15 111.44-25.2L111.44-25.2 111.24-23.15Q109.79-22.95 109.17-22.38 108.54-21.8 108.49-20.65L108.49-20.65 107.89 0.85 105.94 1.4Q101.19-5.55 96.34-12.2 91.49-18.85 91.49-18.75L91.49-18.75 91.24-18.75 91.09-3.6Q91.09-2.65 91.39-2.3 91.69-1.95 92.39-1.95L92.39-1.95 94.39-2 94.54-1.85 94.14 0.15Q93.69 0.1 92.37 0.05 91.04 0 89.59 0L89.59 0Q88.44 0 87.14 0.13 85.84 0.25 85.44 0.3L85.44 0.3 85.69-1.75Q86.94-1.9 87.54-2.48 88.14-3.05 88.19-4.2L88.19-4.2 88.74-20.7Q88.74-21.95 88.02-22.43 87.29-22.9 85.24-23.15L85.24-23.15 85.04-23.4 85.39-25.1Q85.79-25.05 86.92-24.98 88.04-24.9 89.19-24.9L89.19-24.9Q90.29-24.9 91.14-24.95 91.99-25 92.24-25.05L92.24-25.05Q96.29-19.1 100.82-12.9 105.34-6.7 105.34-6.8L105.34-6.8 105.59-6.8ZM115.84 0.45L116.09-1.6Q117.99-1.95 118.64-2.63 119.29-3.3 119.29-4.95L119.29-4.95 119.34-20.85Q119.34-22.1 119.04-22.53 118.74-22.95 117.84-22.95L117.84-22.95 116.19-22.9 116.09-23.1 116.34-25Q116.64-25 117.97-24.95 119.29-24.9 121.44-24.9L121.44-24.9Q122.59-24.9 124.27-25.05 125.94-25.2 126.44-25.25L126.44-25.25 126.24-23.2Q124.59-23 124.04-22.58 123.49-22.15 123.39-21L123.39-21Q123.19-17 123.02-12.15 122.84-7.3 122.84-4.65L122.84-4.65Q122.84-3.05 123.19-2.5 123.54-1.95 124.59-1.95L124.59-1.95Q125.29-1.95 125.87-2 126.44-2.05 126.64-2.1L126.64-2.1 126.74-1.9 126.39 0.1Q125.79 0.1 124.14 0.05 122.49 0 120.84 0L120.84 0Q119.49 0 117.92 0.18 116.34 0.35 115.84 0.45L115.84 0.45ZM152.24-6.8L152.19-21.25Q152.19-22.9 150.84-22.9L150.84-22.9 149.34-22.9 149.24-23.1 149.59-25.05Q150.04-25 151.29-24.95 152.54-24.9 153.84-24.9L153.84-24.9Q154.94-24.9 156.31-25.03 157.69-25.15 158.09-25.2L158.09-25.2 157.89-23.15Q156.44-22.95 155.81-22.38 155.19-21.8 155.14-20.65L155.14-20.65 154.54 0.85 152.59 1.4Q147.84-5.55 142.99-12.2 138.14-18.85 138.14-18.75L138.14-18.75 137.89-18.75 137.74-3.6Q137.74-2.65 138.04-2.3 138.34-1.95 139.04-1.95L139.04-1.95 141.04-2 141.19-1.85 140.79 0.15Q140.34 0.1 139.01 0.05 137.69 0 136.24 0L136.24 0Q135.09 0 133.79 0.13 132.49 0.25 132.09 0.3L132.09 0.3 132.34-1.75Q133.59-1.9 134.19-2.48 134.79-3.05 134.84-4.2L134.84-4.2 135.39-20.7Q135.39-21.95 134.66-22.43 133.94-22.9 131.89-23.15L131.89-23.15 131.69-23.4 132.04-25.1Q132.44-25.05 133.56-24.98 134.69-24.9 135.84-24.9L135.84-24.9Q136.94-24.9 137.79-24.95 138.64-25 138.89-25.05L138.89-25.05Q142.94-19.1 147.46-12.9 151.99-6.7 151.99-6.8L151.99-6.8 152.24-6.8ZM173.94 0.45Q168.44 0.45 165.16-2.83 161.89-6.1 161.89-11.65L161.89-11.65Q161.89-15.75 163.69-18.85 165.49-21.95 168.76-23.65 172.04-25.35 176.34-25.35L176.34-25.35Q177.89-25.35 179.66-25.15 181.44-24.95 182.71-24.7 183.99-24.45 184.34-24.4L184.34-24.4 184.54-24.1Q184.49-23.85 184.26-22.93 184.04-22 183.81-20.53 183.59-19.05 183.49-17.4L183.49-17.4 181.04-17.2Q181.04-17.4 181.09-17.98 181.14-18.55 181.14-19.3L181.14-19.3Q181.14-21.05 179.79-21.83 178.44-22.6 175.39-22.6L175.39-22.6Q170.94-22.6 168.56-20.13 166.19-17.65 166.19-12.95L166.19-12.95Q166.19-7.9 168.54-4.98 170.89-2.05 174.89-2.05L174.89-2.05Q176.29-2.05 177.44-2.35 178.59-2.65 179.26-2.95 179.94-3.25 180.09-3.35L180.09-3.35 180.09-7.75Q180.09-9 179.66-9.4 179.24-9.8 177.94-9.8L177.94-9.8 175.29-9.8 175.19-10 175.59-12.2Q175.79-12.2 177.46-12.15 179.14-12.1 180.89-12.1L180.89-12.1Q182.04-12.1 183.16-12.18 184.29-12.25 184.59-12.3L184.59-12.3 184.79-11.2Q183.99-10.6 183.71-9.35 183.44-8.1 183.44-5.05L183.44-5.05Q183.44-2.8 183.69-1.65L183.69-1.65 183.44-1.25Q183.09-1.1 181.81-0.7 180.54-0.3 178.44 0.08 176.34 0.45 173.94 0.45L173.94 0.45ZM212.33 0.45Q206.68 0.45 203.38-2.8 200.08-6.05 200.08-11.65L200.08-11.65Q200.08-15.6 201.91-18.73 203.73-21.85 207.01-23.6 210.28-25.35 214.43-25.35L214.43-25.35Q215.93-25.35 217.56-25.15 219.18-24.95 220.31-24.7 221.43-24.45 221.73-24.4L221.73-24.4 221.93-24.1Q221.88-23.85 221.68-22.93 221.48-22 221.23-20.5 220.98-19 220.88-17.3L220.88-17.3 218.38-17.15Q218.38-17.3 218.43-17.85 218.48-18.4 218.48-19.1L218.48-19.1Q218.48-22.6 212.88-22.6L212.88-22.6Q208.98-22.6 206.73-20.03 204.48-17.45 204.48-12.95L204.48-12.95Q204.48-7.95 206.86-5 209.23-2.05 213.23-2.05L213.23-2.05Q215.88-2.05 217.46-3.48 219.03-4.9 219.73-7.95L219.73-7.95 222.23-8.15Q222.08-7.55 221.71-5.45 221.33-3.35 221.18-1.5L221.18-1.5 220.88-1.1Q220.58-1 219.46-0.63 218.33-0.25 216.43 0.1 214.53 0.45 212.33 0.45L212.33 0.45ZM237.63 0.45Q234.23 0.45 231.6-1.05 228.98-2.55 227.55-5.3 226.13-8.05 226.13-11.65L226.13-11.65Q226.13-15.55 227.9-18.68 229.68-21.8 232.75-23.58 235.83-25.35 239.63-25.35L239.63-25.35Q243.08-25.35 245.73-23.85 248.38-22.35 249.83-19.63 251.28-16.9 251.28-13.3L251.28-13.3Q251.28-9.4 249.5-6.28 247.73-3.15 244.6-1.35 241.48 0.45 237.63 0.45L237.63 0.45ZM238.83-1.95Q242.48-1.95 244.73-4.58 246.98-7.2 246.98-11.55L246.98-11.55Q246.98-14.85 245.9-17.35 244.83-19.85 242.85-21.2 240.88-22.55 238.28-22.55L238.28-22.55Q234.73-22.55 232.55-19.95 230.38-17.35 230.38-13L230.38-13Q230.38-9.7 231.43-7.2 232.48-4.7 234.4-3.33 236.33-1.95 238.83-1.95L238.83-1.95ZM266.88 0.45Q266.23 0.35 264.25 0.18 262.28 0 260.93 0L260.93 0Q259.63 0 258.08 0.18 256.53 0.35 256.08 0.45L256.08 0.45 256.33-1.65Q258.13-1.95 258.78-2.65 259.43-3.35 259.43-4.95L259.43-4.95 259.48-20.85Q259.48-22.1 259.18-22.53 258.88-22.95 258.03-22.95L258.03-22.95Q257.58-22.95 257.18-22.9 256.78-22.85 256.63-22.85L256.63-22.85 256.53-23.1 256.83-25Q257.33-25 258.65-24.95 259.98-24.9 261.33-24.9L261.33-24.9Q263.13-24.9 265.03-24.98 266.93-25.05 267.63-25.05L267.63-25.05Q271.63-25.05 274.68-23.6 277.73-22.15 279.4-19.53 281.08-16.9 281.08-13.4L281.08-13.4Q281.08-9.5 279.2-6.35 277.33-3.2 274.08-1.38 270.83 0.45 266.88 0.45L266.88 0.45ZM264.98-22.7Q264.18-22.7 263.9-22.53 263.63-22.35 263.58-21.8L263.58-21.8Q262.98-7.75 262.98-5.3L262.98-5.3Q262.98-3.95 263.38-3.23 263.78-2.5 264.78-2.23 265.78-1.95 267.73-1.95L267.73-1.95Q271.93-1.95 274.3-4.7 276.68-7.45 276.68-12.4L276.68-12.4Q276.68-17.45 273.68-20.08 270.68-22.7 264.98-22.7L264.98-22.7ZM285.82 0.4L286.07-1.7Q287.92-1.9 288.57-2.6 289.22-3.3 289.22-5L289.22-5 289.27-20.85Q289.27-22.1 288.97-22.53 288.67-22.95 287.77-22.95L287.77-22.95 286.42-22.9 286.32-23.1 286.62-25Q287.22-25 288.97-24.95 290.72-24.9 292.77-24.9L292.77-24.9Q301.12-24.9 305.12-25.35L305.12-25.35 305.27-25.1Q305.17-24.55 304.82-22.6 304.47-20.65 304.32-18.4L304.32-18.4 301.92-18.2Q301.92-18.4 301.97-18.88 302.02-19.35 302.02-19.85L302.02-19.85Q302.02-21.15 301.65-21.68 301.27-22.2 300.1-22.38 298.92-22.55 296.02-22.55L296.02-22.55Q294.67-22.55 294.17-22.48 293.67-22.4 293.52-22.13 293.37-21.85 293.32-21.1L293.32-21.1 293.02-14 297.12-13.95Q298.02-13.95 299.77-14.13 301.52-14.3 302.07-14.35L302.07-14.35 302.27-14.1 301.67-11.5Q301.12-11.5 299.5-11.55 297.87-11.6 296.07-11.6L296.07-11.6Q294.67-11.6 292.92-11.35L292.92-11.35Q292.77-7.55 292.77-4.5L292.77-4.5Q292.77-3.35 292.95-2.9 293.12-2.45 293.75-2.3 294.37-2.15 295.82-2.15L295.82-2.15Q299.07-2.15 300.47-2.45 301.87-2.75 302.45-3.68 303.02-4.6 303.37-6.85L303.37-6.85 305.57-7.05 305.77-6.8Q305.62-6.25 305.25-4.23 304.87-2.2 304.67 0L304.67 0 304.37 0.25Q303.02 0.2 298.77 0.1 294.52 0 291.87 0L291.87 0Q289.82 0 288.07 0.18 286.32 0.35 285.82 0.4L285.82 0.4ZM321.07 0.45L321.32-1.6Q323.22-1.95 323.87-2.63 324.52-3.3 324.52-4.95L324.52-4.95 324.57-20.85Q324.57-22.1 324.27-22.53 323.97-22.95 323.07-22.95L323.07-22.95 321.42-22.9 321.32-23.1 321.57-25Q321.87-25 323.19-24.95 324.52-24.9 326.67-24.9L326.67-24.9Q327.82-24.9 329.49-25.05 331.17-25.2 331.67-25.25L331.67-25.25 331.47-23.2Q329.82-23 329.27-22.58 328.72-22.15 328.62-21L328.62-21Q328.42-17 328.24-12.15 328.07-7.3 328.07-4.65L328.07-4.65Q328.07-3.05 328.42-2.5 328.77-1.95 329.82-1.95L329.82-1.95Q330.52-1.95 331.09-2 331.67-2.05 331.87-2.1L331.87-2.1 331.97-1.9 331.62 0.1Q331.02 0.1 329.37 0.05 327.72 0 326.07 0L326.07 0Q324.72 0 323.14 0.18 321.57 0.35 321.07 0.45L321.07 0.45ZM357.47-6.8L357.42-21.25Q357.42-22.9 356.06-22.9L356.06-22.9 354.56-22.9 354.47-23.1 354.81-25.05Q355.26-25 356.51-24.95 357.76-24.9 359.06-24.9L359.06-24.9Q360.17-24.9 361.54-25.03 362.92-25.15 363.31-25.2L363.31-25.2 363.12-23.15Q361.67-22.95 361.04-22.38 360.42-21.8 360.37-20.65L360.37-20.65 359.76 0.85 357.81 1.4Q353.06-5.55 348.22-12.2 343.37-18.85 343.37-18.75L343.37-18.75 343.12-18.75 342.97-3.6Q342.97-2.65 343.26-2.3 343.56-1.95 344.26-1.95L344.26-1.95 346.26-2 346.42-1.85 346.01 0.15Q345.56 0.1 344.24 0.05 342.92 0 341.47 0L341.47 0Q340.31 0 339.01 0.13 337.72 0.25 337.31 0.3L337.31 0.3 337.56-1.75Q338.81-1.9 339.42-2.48 340.01-3.05 340.06-4.2L340.06-4.2 340.62-20.7Q340.62-21.95 339.89-22.43 339.17-22.9 337.12-23.15L337.12-23.15 336.92-23.4 337.26-25.1Q337.67-25.05 338.79-24.98 339.92-24.9 341.06-24.9L341.06-24.9Q342.17-24.9 343.01-24.95 343.87-25 344.12-25.05L344.12-25.05Q348.17-19.1 352.69-12.9 357.22-6.7 357.22-6.8L357.22-6.8 357.47-6.8ZM369.56 0.2L369.91-1.8Q371.91-1.95 372.74-2.3 373.56-2.65 373.79-3.48 374.01-4.3 374.01-6.35L374.01-6.35 374.01-22.9Q370.86-22.8 369.76-22.55 368.66-22.3 368.14-21.38 367.61-20.45 367.26-17.9L367.26-17.9 364.91-17.75Q365.01-18.4 365.24-20.63 365.46-22.85 365.51-25L365.51-25 365.91-25.35 369.46-24.95 382.21-24.95 385.86-25.35 386.26-25Q386.31-22.8 386.51-20.65 386.71-18.5 386.81-17.9L386.81-17.9 384.51-17.75Q384.11-20.35 383.59-21.33 383.06-22.3 382.04-22.55 381.01-22.8 378.11-22.9L378.11-22.9Q377.86-20.5 377.66-14.93 377.46-9.35 377.46-4.65L377.46-4.65Q377.46-3.2 378.01-2.6 378.56-2 379.81-2L379.81-2Q380.71-2 381.29-2.05 381.86-2.1 382.01-2.1L382.01-2.1 382.16-1.95 381.81 0.15Q381.11 0.15 379.21 0.08 377.31 0 375.51 0L375.51 0Q373.71 0 371.96 0.08 370.21 0.15 369.56 0.2L369.56 0.2ZM400.71 0.45Q397.31 0.45 394.68-1.05 392.06-2.55 390.63-5.3 389.21-8.05 389.21-11.65L389.21-11.65Q389.21-15.55 390.98-18.68 392.76-21.8 395.83-23.58 398.91-25.35 402.71-25.35L402.71-25.35Q406.16-25.35 408.81-23.85 411.46-22.35 412.91-19.63 414.36-16.9 414.36-13.3L414.36-13.3Q414.36-9.4 412.58-6.28 410.81-3.15 407.68-1.35 404.56 0.45 400.71 0.45L400.71 0.45ZM401.91-1.95Q405.56-1.95 407.81-4.58 410.06-7.2 410.06-11.55L410.06-11.55Q410.06-14.85 408.98-17.35 407.91-19.85 405.93-21.2 403.96-22.55 401.36-22.55L401.36-22.55Q397.81-22.55 395.63-19.95 393.46-17.35 393.46-13L393.46-13Q393.46-9.7 394.51-7.2 395.56-4.7 397.48-3.33 399.41-1.95 401.91-1.95L401.91-1.95ZM439.85 0.45Q439.2 0.35 437.23 0.18 435.25 0 433.9 0L433.9 0Q432.6 0 431.05 0.18 429.5 0.35 429.05 0.45L429.05 0.45 429.3-1.65Q431.1-1.95 431.75-2.65 432.4-3.35 432.4-4.95L432.4-4.95 432.45-20.85Q432.45-22.1 432.15-22.53 431.85-22.95 431-22.95L431-22.95Q430.55-22.95 430.15-22.9 429.75-22.85 429.6-22.85L429.6-22.85 429.5-23.1 429.8-25Q430.3-25 431.63-24.95 432.95-24.9 434.3-24.9L434.3-24.9Q436.1-24.9 438-24.98 439.9-25.05 440.6-25.05L440.6-25.05Q444.6-25.05 447.65-23.6 450.7-22.15 452.38-19.53 454.05-16.9 454.05-13.4L454.05-13.4Q454.05-9.5 452.18-6.35 450.3-3.2 447.05-1.38 443.8 0.45 439.85 0.45L439.85 0.45ZM437.95-22.7Q437.15-22.7 436.88-22.53 436.6-22.35 436.55-21.8L436.55-21.8Q435.95-7.75 435.95-5.3L435.95-5.3Q435.95-3.95 436.35-3.23 436.75-2.5 437.75-2.23 438.75-1.95 440.7-1.95L440.7-1.95Q444.9-1.95 447.28-4.7 449.65-7.45 449.65-12.4L449.65-12.4Q449.65-17.45 446.65-20.08 443.65-22.7 437.95-22.7L437.95-22.7ZM477.65 0.6Q476.55 0.6 475.4-0.38 474.25-1.35 473.3-3.05L473.3-3.05 469.1-10.4 465.85-10.4 465.75-5.05Q465.75-3.6 465.95-2.98 466.15-2.35 466.73-2.15 467.3-1.95 468.7-1.9L468.7-1.9 468.8-1.75 468.4 0.15Q467.8 0.1 466.23 0.08 464.65 0.05 463.05 0.05L463.05 0.05Q461.5 0.05 460.35 0.1 459.2 0.15 458.8 0.2L458.8 0.2 459.15-1.85Q461-2.1 461.6-2.7 462.2-3.3 462.2-4.95L462.2-4.95 462.25-20.9Q462.25-22.1 461.95-22.53 461.65-22.95 460.8-22.95L460.8-22.95 459.4-22.9 459.25-23.1 459.55-25Q460.05-25 461.45-24.95 462.85-24.9 464.25-24.9L464.25-24.9Q465.7-24.9 467.35-24.98 469-25.05 469.6-25.05L469.6-25.05Q473.65-25.05 475.95-23.38 478.25-21.7 478.25-18.75L478.25-18.75Q478.25-16.45 476.7-14.5 475.15-12.55 472.35-11.3L472.35-11.3 476.6-4.9Q477.8-3.1 478.9-2.35 480-1.6 481.55-1.6L481.55-1.6 481.75-1.35 481.5 0.2 477.65 0.6ZM470-12.6Q470.95-13 471.68-13.38 472.4-13.75 473.3-14.95 474.2-16.15 474.2-18.05L474.2-18.05Q474.2-22.9 467.05-22.9L467.05-22.9Q466.65-22.9 466.5-22.73 466.35-22.55 466.35-22L466.35-22Q465.95-15.9 465.95-13L465.95-13 470-12.6ZM485.25 0.4L485.5-1.7Q487.35-1.9 488-2.6 488.65-3.3 488.65-5L488.65-5 488.7-20.85Q488.7-22.1 488.4-22.53 488.1-22.95 487.2-22.95L487.2-22.95 485.85-22.9 485.75-23.1 486.05-25Q486.65-25 488.4-24.95 490.15-24.9 492.2-24.9L492.2-24.9Q500.55-24.9 504.55-25.35L504.55-25.35 504.7-25.1Q504.6-24.55 504.25-22.6 503.9-20.65 503.75-18.4L503.75-18.4 501.35-18.2Q501.35-18.4 501.4-18.88 501.45-19.35 501.45-19.85L501.45-19.85Q501.45-21.15 501.07-21.68 500.7-22.2 499.52-22.38 498.35-22.55 495.45-22.55L495.45-22.55Q494.1-22.55 493.6-22.48 493.1-22.4 492.95-22.13 492.8-21.85 492.75-21.1L492.75-21.1 492.45-14 496.55-13.95Q497.45-13.95 499.2-14.13 500.95-14.3 501.5-14.35L501.5-14.35 501.7-14.1 501.1-11.5Q500.55-11.5 498.92-11.55 497.3-11.6 495.5-11.6L495.5-11.6Q494.1-11.6 492.35-11.35L492.35-11.35Q492.2-7.55 492.2-4.5L492.2-4.5Q492.2-3.35 492.37-2.9 492.55-2.45 493.17-2.3 493.8-2.15 495.25-2.15L495.25-2.15Q498.5-2.15 499.9-2.45 501.3-2.75 501.87-3.68 502.45-4.6 502.8-6.85L502.8-6.85 505-7.05 505.2-6.8Q505.05-6.25 504.67-4.23 504.3-2.2 504.1 0L504.1 0 503.8 0.25Q502.45 0.2 498.2 0.1 493.95 0 491.3 0L491.3 0Q489.25 0 487.5 0.18 485.75 0.35 485.25 0.4L485.25 0.4ZM522.15 0.35L522 0.1 522.15-1.7Q524.25-1.85 524.97-2.15 525.7-2.45 525.7-3.15L525.7-3.15Q525.7-3.95 525.35-4.85L525.35-4.85 524.15-8.7Q523.15-8.75 520-8.75L520-8.75Q518.55-8.75 515.7-8.45L515.7-8.45 514.3-4.75Q513.95-3.6 513.95-3.35L513.95-3.35Q513.95-2.55 514.5-2.2 515.05-1.85 516.3-1.85L516.3-1.85 518.45-1.85 518.6-1.65 518.3 0.25Q517.8 0.2 516.02 0.1 514.25 0 512.55 0L512.55 0Q510.95 0 509.67 0.05 508.4 0.1 507.95 0.1L507.95 0.1 508.25-1.95Q509.35-2.1 510-2.73 510.65-3.35 511.3-4.85L511.3-4.85 519.15-24.7 522.7-25.35 523.05-25.3Q523.05-25.1 525.32-17.4 527.6-9.7 529.4-4.65L529.4-4.65Q529.9-3.2 530.67-2.63 531.45-2.05 533.15-1.9L533.15-1.9 533.25-1.7 533 0.1Q532.5 0.1 531.15 0.05 529.8 0 528.45 0L528.45 0Q526.4 0 524.55 0.15 522.7 0.3 522.15 0.35L522.15 0.35ZM516.5-10.8L519.9-10.8Q521.65-10.8 523.55-11L523.55-11 520.5-20.7 520.15-20.7 516.5-10.8ZM549.99 0.7Q544.94-13 542.44-19.35L542.44-19.35 542.19-19.35Q541.99-16.95 541.47-10.4 540.94-3.85 540.94-3.2L540.94-3.2Q540.94-2.55 541.24-2.27 541.54-2 542.24-2L542.24-2 543.84-2 543.94-1.85 543.59 0.15Q543.14 0.15 541.87 0.08 540.59 0 539.34 0L539.34 0Q538.34 0 537.19 0.13 536.04 0.25 535.69 0.3L535.69 0.3 535.89-1.75Q537.19-1.9 537.74-2.53 538.29-3.15 538.49-4.7L538.49-4.7Q538.89-8.1 539.57-14.25 540.24-20.4 540.24-21.15L540.24-21.15Q540.24-22.15 539.47-22.63 538.69-23.1 536.79-23.2L536.79-23.2 536.64-23.45 536.99-25.1Q537.54-25.05 538.94-24.98 540.34-24.9 541.64-24.9L541.64-24.9Q542.74-24.9 543.67-24.95 544.59-25 544.89-25.05L544.89-25.05Q546.39-20.4 547.82-16.32 549.24-12.25 550.17-9.83 551.09-7.4 551.34-6.8L551.34-6.8 551.59-6.8Q552.14-8.2 554.07-13.35 555.99-18.5 558.24-24.95L558.24-24.95Q558.54-25 559.02-24.98 559.49-24.95 559.94-24.95L559.94-24.95Q560.49-24.9 561.54-24.9L561.54-24.9Q562.34-24.9 563.87-25 565.39-25.1 565.89-25.15L565.89-25.15 565.99-25 565.74-23.25Q563.99-23.05 563.29-22.58 562.59-22.1 562.59-21.1L562.59-21.1Q562.59-20.1 562.94-14.75 563.29-9.4 563.64-5.65L563.64-5.65Q563.89-3.4 564.29-2.7 564.69-2 565.64-2L565.64-2 566.79-2.05 566.89-1.9 566.54 0.1Q566.14 0.1 564.99 0.05 563.84 0 562.54 0L562.54 0Q561.24 0 559.59 0.15 557.94 0.3 557.84 0.3L557.84 0.3 558.04-1.75Q559.34-1.9 559.89-2.35 560.44-2.8 560.44-3.7L560.44-3.7Q560.44-4.6 559.92-10.85 559.39-17.1 559.19-19.35L559.19-19.35 558.94-19.35Q555.99-11.8 551.44 0.4L551.44 0.4 549.99 0.7ZM578.74 0.45Q576.99 0.45 575.52 0.15 574.04-0.15 573.17-0.48 572.29-0.8 572.09-0.9L572.09-0.9 571.84-1.35Q571.89-1.6 572.02-2.48 572.14-3.35 572.27-4.93 572.39-6.5 572.39-8.1L572.39-8.1 574.64-8.3Q574.64-5.6 575.07-4.28 575.49-2.95 576.54-2.45 577.59-1.95 579.74-1.95L579.74-1.95Q582.14-1.95 583.62-3 585.09-4.05 585.09-5.8L585.09-5.8Q585.09-6.95 584.27-7.83 583.44-8.7 582.37-9.3 581.29-9.9 578.94-11.05L578.94-11.05Q575.74-12.6 574.02-14.1 572.29-15.6 572.29-17.95L572.29-17.95Q572.29-20.05 573.57-21.75 574.84-23.45 577.09-24.4 579.34-25.35 582.09-25.35L582.09-25.35Q583.74-25.35 585.19-25.15 586.64-24.95 587.49-24.73 588.34-24.5 588.54-24.4L588.54-24.4 588.74-24.05Q588.64-23.5 588.29-21.58 587.94-19.65 587.79-17.45L587.79-17.45 585.84-17.25 585.54-17.45Q585.54-17.6 585.59-18.07 585.64-18.55 585.64-19.25L585.64-19.25Q585.64-21.2 584.62-21.98 583.59-22.75 580.99-22.75L580.99-22.75Q578.89-22.75 577.52-21.78 576.14-20.8 576.14-19.3L576.14-19.3Q576.14-17.8 577.52-16.75 578.89-15.7 581.69-14.35L581.69-14.35Q584.14-13.2 585.62-12.35 587.09-11.5 588.14-10.2 589.19-8.9 589.19-7.2L589.19-7.2Q589.19-4.95 587.87-3.23 586.54-1.5 584.17-0.53 581.79 0.45 578.74 0.45L578.74 0.45Z" opacity="1" transform="matrix(1,0,0,1,0,0)" fill="#ffffff" class="slogan-text-1" data-fill-palette-color="quaternary" id="text-1"></path></svg></g></svg></g></svg></g></svg></g><g transform="matrix(1,0,0,1,56.74860223990501,0)"><svg viewBox="0 0 99.66123674734709 78.89847909164978" height="78.89847909164978" width="99.66123674734709"><g><svg xmlns="http://www.w3.org/2000/svg" xmlns:xlink="http://www.w3.org/1999/xlink" version="1.1" x="0" y="0" viewBox="5 5 48 38" enable-background="new 0 0 58 48" xml:space="preserve" height="78.89847909164978" width="99.66123674734709" class="icon-icon-0" data-fill-palette-color="quaternary" id="icon-0"><path fill-rule="evenodd" clip-rule="evenodd" d="M5 43V13h48v30H5zM51 41V15H7v26H51zM9 9h40v2H9V9zM13 5h32v2H13V5zM23.651 35.008L17 28l6.651-7.009 1.365 1.407L19.73 28h0l5.286 5.602L23.651 35.008zM34.349 20.992L41 28l-6.651 7.009-1.365-1.407L38.27 28h0l-5.286-5.602L34.349 20.992z" fill="#ffffff" data-fill-palette-color="quaternary"></path></svg></g></svg></g><g></g></svg></g></svg></g></svg></g></svg></g><defs></defs></svg><rect width="342.85155851775386" height="342.85155851775386" fill="none" stroke="none" visibility="hidden"></rect></g></svg></g></svg>